# xmcd
#
# Track frame offsets:
#	150
#	37845
#	89922
#	120926
#	162792
#	190657
#	221980
#	253532
#	282819
#	312607
#	337489
#
# Disc length: 4733 seconds
#
# Revision: 0
# Processed by: cddbd v1.5.2PL0 Copyright (c) Steve Scherf et al.
# Submitted via: EZCDAudioConverter 1.3.4.1
#
DISCID=a4127b0b
DTITLE=Julian Cope - Peggy Suicide 2/2
DYEAR=1991
DGENRE=
TTITLE0=Easty Risin' [East Easy Rider Remix]
TTITLE1=Ravebury Stones
TTITLE2=Love L.U.V. [Beautiful Love Remix]
TTITLE3=Dragonfly
TTITLE4=Heed: Of Penetration And The City Dweller [Head Remix]
TTITLE5=Bring Cherhill Down [Vocal]
TTITLE6=Safesurfer [Tour '91 7'' Version]
TTITLE7=If You Loved Me At All [Tour '91 7'' Version]
TTITLE8=Butterfly E
TTITLE9=Straw Dogs
TTITLE10=Anyway At All
EXTD=
EXTT0=
EXTT1=
EXTT2=
EXTT3=
EXTT4=
EXTT5=
EXTT6=
EXTT7=
EXTT8=
EXTT9=
EXTT10=
PLAYORDER=
